<svg xmlns="http://www.w3.org/2000/svg" style="fill: #e6ddc6" enable-background="new 0 0 72 72" viewBox="0 0 72 72"><path fill-rule="evenodd" d="M41.8,55.1c-0.5-0.8-1.5-1.3-2.4-1.1c-1.1,0.2-2.2,0.3-3.4,0.3c-10.3,0-18.6-8.6-18.1-19
		c0.4-9.3,8-16.8,17.2-17.3c10.4-0.5,19,7.8,19,18.1c0,4.5-1.6,8.5-4.3,11.7c-0.6,0.7-0.7,1.8-0.2,2.6l5.2,9c0.9,1.5,3.1,1.5,3.9,0
		l12.2-21.2c0.8-1.4,0.8-3.1,0-4.5L55.4,6.9c-0.8-1.4-2.3-2.3-3.9-2.3h-31c-1.6,0-3.1,0.9-3.9,2.3L1.1,33.7c-0.8,1.4-0.8,3.1,0,4.5
		l15.5,26.9c0.8,1.4,2.3,2.3,3.9,2.3l24.5,0c1.7,0,2.8-1.9,2-3.4L41.8,55.1z" clip-rule="evenodd"/><path fill-rule="evenodd" d="M36,27c-5,0-9.1,4.1-9.1,9.1c0,5,4.1,9.1,9.1,9.1c5,0,9.1-4.1,9.1-9.1C45.1,31.1,41,27,36,27z" clip-rule="evenodd"/></svg>